<svg width="1440" height="1024" viewBox="0 0 1440 1024" fill="none" xmlns="http://www.w3.org/2000/svg">
<rect width="1440" height="1024" fill="white"/>
<path d="M715.668 541.5H673.668V680H607.668V334.5H710.668C802.001 334.5 847.668 368.333 847.668 436C847.668 459 842.001 478 830.668 493C819.335 508 801.668 520.167 777.668 529.5L868.168 680H792.168L715.668 541.5ZM673.668 494H714.668C735.668 494 751.501 489.5 762.168 480.5C773.168 471.167 778.668 456.333 778.668 436C778.668 417.333 773.001 403.833 761.668 395.5C750.668 386.833 733.168 382.5 709.168 382.5H673.668V494Z" fill="#0581F3"/>
<path d="M753.656 651.533C766.896 602.022 791.782 575.652 869.721 531.313V579.602C831.199 587.209 811.12 607.256 778.127 672.407L753.656 651.533Z" fill="white"/>
<path d="M945.923 368.047C914.124 413.078 863.183 434.006 708.705 463.011L715.096 416.879C789.555 416.212 830.493 400.501 902.025 343.912L945.923 368.047Z" fill="white"/>
</svg>
