<svg width="549" height="548" viewBox="0 0 549 548" fill="none" xmlns="http://www.w3.org/2000/svg">
<path d="M272.802 285.708H256.338V340H230.466V204.564H270.842C306.645 204.564 324.546 217.827 324.546 244.352C324.546 253.368 322.325 260.816 317.882 266.696C313.439 272.576 306.514 277.345 297.106 281.004L332.582 340H302.79L272.802 285.708ZM256.338 267.088H272.41C280.642 267.088 286.849 265.324 291.03 261.796C295.342 258.137 297.498 252.323 297.498 244.352C297.498 237.035 295.277 231.743 290.834 228.476C286.522 225.079 279.662 223.38 270.254 223.38H256.338V267.088Z" fill="#0581F3"/>
<path d="M290 328.336C295.048 301.84 304.536 287.728 334.25 264V289.842C319.563 293.913 311.908 304.641 299.33 339.507L290 328.336Z" fill="white"/>
<path d="M356.439 202.314C344.316 226.413 324.895 237.612 266 253.135L268.437 228.447C296.824 228.09 312.432 219.682 339.703 189.398L356.439 202.314Z" fill="white"/>
</svg>
